<svg width="36" height="36" viewBox="0 0 36 36" fill="none" xmlns="http://www.w3.org/2000/svg">
<path fill-rule="evenodd" clip-rule="evenodd" d="M24.7077 32.6298C19.8443 30.528 18.5603 25.699 19.9396 21.9288C19.9396 21.9288 23.1302 22.9188 25.6509 23.7092C28.1717 24.4996 29.7229 23.5506 30.5867 22.3166C31.468 21.0827 31.7325 19.1907 30.1988 17.3456C28.6652 15.5005 25.2278 11.2817 25.2278 11.2817L33.8301 1.26919L32.0321 0L22.7423 5.62935C21.738 5.40606 20.6939 5.2883 19.6223 5.2883C11.717 5.2883 5.30859 11.6967 5.30859 19.602C5.30859 27.9687 11.8545 33.8203 19.9872 33.8203C21.4749 33.8203 23.6569 33.4236 24.7077 32.6298Z" fill="url(#paint0_linear_16391_38621)"/>
<path fill-rule="evenodd" clip-rule="evenodd" d="M15.1646 12.7413C15.1698 12.7248 15.175 12.7084 15.1803 12.6919C15.1803 12.6919 15.1803 12.692 15.1802 12.692C15.1749 12.7084 15.1697 12.7249 15.1646 12.7413ZM15.1802 12.692C13.3859 16.1956 13.4045 19.2647 17.4087 21.0773C17.6552 21.1888 17.8745 21.2746 18.052 21.3381C16.9429 24.9173 17.655 29.6073 20.7808 32.1343C11.022 31.4401 7.49086 18.5468 15.1802 12.692Z" fill="#DAE4F2"/>
<path d="M29.6055 20.0907C29.5976 19.6518 29.4403 19.0815 28.8966 18.4273C26.9208 16.0501 24.9732 13.6492 23.0207 11.2529L29.8563 3.29668L20.6438 8.67282L21.1374 7.0705C13.6388 6.14916 7 12.1276 7 19.602C7 27.0369 13.3413 32.3326 20.7798 32.1342C13.9976 30.5286 9.57694 20.4316 15.1792 12.6919C13.346 18.4033 18.953 19.8511 18.953 19.8511L26.1564 22.0945C27.1272 22.3989 27.7598 22.3265 28.1647 22.1803C28.5806 22.0302 28.9226 21.7416 29.1995 21.3462L29.2041 21.3396L29.2088 21.333C29.4615 20.9791 29.6138 20.5477 29.6055 20.0907Z" fill="white"/>
<path fill-rule="evenodd" clip-rule="evenodd" d="M21.4793 14.6028C21.5163 14.5336 21.5488 14.4609 21.5763 14.3849C21.8867 13.5285 21.4453 12.5808 20.5904 12.2683C19.7356 11.9558 18.791 12.3968 18.4806 13.2533C18.4532 13.3288 18.4317 13.4051 18.4158 13.4816C18.9577 13.3031 19.5614 13.299 20.1395 13.5104C20.7181 13.7219 21.1784 14.1154 21.4793 14.6028Z" fill="#7373BF"/>
<defs>
<linearGradient id="paint0_linear_16391_38621" x1="33.8293" y1="1.15638" x2="8.26521" y2="28.0101" gradientUnits="userSpaceOnUse">
<stop stop-color="#FEC519"/>
<stop offset="0.278985" stop-color="#E62E5C"/>
<stop offset="0.760754" stop-color="#45A3E6"/>
<stop offset="1" stop-color="#5CE6C3"/>
</linearGradient>
</defs>
</svg>
