<svg width="83" height="104" viewBox="0 0 83 104" fill="none" xmlns="http://www.w3.org/2000/svg">
<path d="M81.2659 60.4337C81.2378 58.873 80.6785 56.8454 78.7452 54.5194C71.72 46.0672 64.7955 37.5305 57.8531 29.0104L82.1576 0.721527L49.4019 19.8367L51.1569 14.1396C24.4954 10.8637 0.890625 32.1204 0.890625 58.6959C0.890625 85.1312 23.4375 103.96 49.8854 103.255C25.7711 97.546 10.0531 61.6457 29.9723 34.1269C23.454 54.4339 43.3902 59.5818 43.3902 59.5818L69.0022 67.5581C72.4542 68.6405 74.7034 68.383 76.143 67.8634C77.6216 67.3296 78.8377 66.3037 79.822 64.8975L79.8385 64.8741L79.8551 64.8507C80.7538 63.5926 81.2951 62.0586 81.2659 60.4337Z" fill="white"/>
</svg>
